# xmcd
#
# Track frame offsets: 
#        150
#        10315
#        25218
#        37096
#        55086
#        73536
#        84574
#        97604
#        109957
#        122135
#        141100
#        153798
#        163793
#        175685
#        187687
#        200400
#        209947
#        225922
#        239654
#        251769
#        263254
#        279584
#        293023
#        307435
#
# Disc length: 4272 seconds
#
# Revision: 2
# Processed by: cddbd v1.5.2PL0 Copyright (c) Steve Scherf et al.
# Submitted via: ExactAudioCopy v1.0b1
#
DISCID=5010ae18
DTITLE=Various Artist - 100 % Loungin' - Vol. 1
DYEAR=2007
DGENRE=Easy Listening
TTITLE0=Tony Bennett - The Good Life
TTITLE1=Peggy Lee - Fever
TTITLE2=Sergio Mendes - Mas Que Nada (& Brasil '66)
TTITLE3=Herb Albert - This Guy's In Love With You (& The Tijuana Brass
TTITLE3=)
TTITLE4=Booker T. - I Say A Little Prayer (& The MG's)
TTITLE5=Ray Conniff - S'Wonderful
TTITLE6=Bobby Darin - Beyond The Sea (La Mer)
TTITLE7=Robert Mitchum - Sunny
TTITLE8=Francis Lai - Un Homme Et Une Femme
TTITLE9=Louis Prima - Basin Street Blues
TTITLE10=Dinah Washington - Mad About The Boy
TTITLE11=Dean Martin - You're Nobody Till Somebody Loves You
TTITLE12=The Fifth Dimension - Up, Up And Away
TTITLE13=Perry Como - Magic Moments
TTITLE14=Bobby Vinton - Blue Velvet
TTITLE15=Sam Cooke - Wonderful World
TTITLE16=Dusty Springfield - The Look Of Love
TTITLE17=B.J. Thomas - Raindrops Keep Falling On My Head
TTITLE18=Otis Redding - (Sittin' On) The Dock Of The Bay
TTITLE19=Georgie Fame - Peaceful
TTITLE20=Nina Simone - My Baby Just Cares For Me
TTITLE21=Eartha Kitt - C'est Si Bon
TTITLE22=Julie London - As Time Goes By
TTITLE23=Tom Jones - Help Yourself
EXTD=
EXTT0=
EXTT1=
EXTT2=
EXTT3=
EXTT4=
EXTT5=
EXTT6=
EXTT7=
EXTT8=
EXTT9=
EXTT10=
EXTT11=
EXTT12=
EXTT13=
EXTT14=
EXTT15=
EXTT16=
EXTT17=
EXTT18=
EXTT19=
EXTT20=
EXTT21=
EXTT22=
EXTT23=
PLAYORDER=
